<svg width="24" height="28" viewBox="0 0 24 28" fill="none" xmlns="http://www.w3.org/2000/svg">
<path d="M19.9188 14.7938C19.9062 12.5 20.9438 10.7687 23.0438 9.49375C21.8688 7.8125 20.0938 6.8875 17.75 6.70625C15.5312 6.53125 13.1062 8 12.2188 8C11.2812 8 9.13125 6.76875 7.44375 6.76875C3.95625 6.825 0.25 9.55 0.25 15.0938C0.25 16.7313 0.55 18.4229 1.15 20.1688C1.95 22.4625 4.8375 28.0875 7.85 27.9937C9.425 27.9562 10.5375 26.875 12.5875 26.875C14.575 26.875 15.6062 27.9937 17.3625 27.9937C20.4 27.95 23.0125 22.8375 23.775 20.5375C19.7 18.6187 19.9188 14.9125 19.9188 14.7938ZM16.3813 4.53125C18.0875 2.50625 17.9312 0.6625 17.8813 0C16.375 0.0875 14.6312 1.025 13.6375 2.18125C12.5437 3.41875 11.9 4.95 12.0375 6.675C13.6688 6.8 15.1562 5.9625 16.3813 4.53125Z" fill="black"/>
</svg>
