<svg width="32" height="32" viewBox="0 0 32 32" fill="none" xmlns="http://www.w3.org/2000/svg">
<path d="M29.0741 13.3885H28.0001V13.3332H16.0001V18.6665H23.5354C22.4361 21.7712 19.4821 23.9998 16.0001 23.9998C11.5821 23.9998 8.00008 20.4178 8.00008 15.9998C8.00008 11.5818 11.5821 7.99984 16.0001 7.99984C18.0394 7.99984 19.8947 8.76917 21.3074 10.0258L25.0787 6.2545C22.6974 4.03517 19.5121 2.6665 16.0001 2.6665C8.63675 2.6665 2.66675 8.6365 2.66675 15.9998C2.66675 23.3632 8.63675 29.3332 16.0001 29.3332C23.3634 29.3332 29.3334 23.3632 29.3334 15.9998C29.3334 15.1058 29.2414 14.2332 29.0741 13.3885Z" fill="#FFC107"/>
<path d="M4.2041 9.79384L8.58477 13.0065C9.7701 10.0718 12.6408 7.99984 16.0001 7.99984C18.0394 7.99984 19.8948 8.76917 21.3074 10.0258L25.0788 6.2545C22.6974 4.03517 19.5121 2.6665 16.0001 2.6665C10.8788 2.6665 6.43743 5.55784 4.2041 9.79384Z" fill="#FF3D00"/>
<path d="M15.9999 29.3333C19.4439 29.3333 22.5732 28.0153 24.9392 25.872L20.8125 22.38C19.4739 23.394 17.8099 24 15.9999 24C12.5319 24 9.58722 21.7886 8.47788 18.7026L4.12988 22.0526C6.33655 26.3706 10.8179 29.3333 15.9999 29.3333Z" fill="#4CAF50"/>
<path d="M29.074 13.3888H28V13.3335H16V18.6668H23.5353C23.0073 20.1582 22.048 21.4442 20.8107 22.3808C20.8113 22.3802 20.812 22.3802 20.8127 22.3795L24.9393 25.8715C24.6473 26.1368 29.3333 22.6668 29.3333 16.0002C29.3333 15.1062 29.2413 14.2335 29.074 13.3888Z" fill="#1976D2"/>
</svg>
